<?xml version="1.0" standalone="no"?>
<!DOCTYPE svg PUBLIC "-//W3C//DTD SVG 20010904//EN"
 "http://www.w3.org/TR/2001/REC-SVG-20010904/DTD/svg10.dtd">
<svg version="1.0" xmlns="http://www.w3.org/2000/svg"
 width="2153.000000pt" height="2053.000000pt" viewBox="0 0 2153.000000 2053.000000"
 preserveAspectRatio="xMidYMid meet">

<g transform="translate(0.000000,2053.000000) scale(0.100000,-0.100000)"
fill="#000000" stroke="none">
<path d="M10623 20208 c-1933 -3913 -3163 -6407 -3163 -6416 0 -6 740 -1022
1645 -2259 904 -1236 1643 -2249 1641 -2251 -2 -2 -2404 765 -5337 1703 -3446
1102 -5343 1705 -5363 1703 -17 -2 -29 -7 -26 -13 3 -5 1202 -1177 2665 -2604
1463 -1426 2661 -2599 2663 -2605 1 -6 -274 -1647 -613 -3646 -338 -1999 -615
-3636 -615 -3638 0 -2 6 0 12 4 7 5 -4 -15 -25 -43 -44 -60 -46 -69 -11 -46
l27 17 -5 -37 c-2 -20 -2 -37 -1 -37 2 0 1154 605 2561 1344 2861 1503 3076
1615 3662 1916 228 117 417 217 420 221 3 4 1499 -778 3324 -1737 1825 -960
3319 -1744 3321 -1742 2 2 -57 356 -131 788 -74 432 -240 1404 -370 2160 -129
756 -250 1465 -269 1575 -133 770 -485 2853 -485 2865 0 8 1208 1192 2685
2630 l2684 2615 -33 8 c-29 7 -737 -222 -5318 -1722 l-5285 -1731 -52 16 c-37
11 -49 19 -44 28 5 7 748 1020 1653 2252 905 1231 1644 2241 1643 2244 -7 21
-3305 6705 -3313 6713 -4 4 -70 -119 -147 -275z m171 -11005 c-26 -19 -34 -16
-34 10 0 33 10 40 32 20 18 -16 18 -18 2 -30z"/>
</g>
</svg>
